<mxfile host="app.diagrams.net" modified="2021-04-16T02:10:41.085Z" agent="5.0 (Macintosh; Intel Mac OS X 11_0_1) AppleWebKit/537.36 (KHTML, like Gecko) Chrome/89.0.4389.128 Safari/537.36" etag="rtCebZ5EhlHW1baCgC6P" version="14.6.1" type="github">
  <diagram id="DBg23Ft4EOHM_xaeqgFh" name="Page-1">
    <mxGraphModel dx="901" dy="619" grid="1" gridSize="10" guides="1" tooltips="1" connect="1" arrows="1" fold="1" page="1" pageScale="1" pageWidth="827" pageHeight="1169" math="0" shadow="0">
      <root>
        <mxCell id="0" />
        <mxCell id="1" parent="0" />
        <mxCell id="3gOpFJUrYChyAeatIPqP-1" value="后台服务器" style="rounded=0;whiteSpace=wrap;html=1;" vertex="1" parent="1">
          <mxGeometry x="280" y="190" width="120" height="60" as="geometry" />
        </mxCell>
        <mxCell id="3gOpFJUrYChyAeatIPqP-2" value="" style="endArrow=none;dashed=1;html=1;" edge="1" parent="1">
          <mxGeometry width="50" height="50" relative="1" as="geometry">
            <mxPoint x="20" y="290" as="sourcePoint" />
            <mxPoint x="800" y="290" as="targetPoint" />
          </mxGeometry>
        </mxCell>
        <mxCell id="3gOpFJUrYChyAeatIPqP-3" value="外网" style="text;html=1;strokeColor=none;fillColor=none;align=center;verticalAlign=middle;whiteSpace=wrap;rounded=0;" vertex="1" parent="1">
          <mxGeometry x="30" y="200" width="40" height="20" as="geometry" />
        </mxCell>
        <mxCell id="3gOpFJUrYChyAeatIPqP-4" value="铁路办公网" style="text;html=1;strokeColor=none;fillColor=none;align=center;verticalAlign=middle;whiteSpace=wrap;rounded=0;" vertex="1" parent="1">
          <mxGeometry x="30" y="320" width="80" height="20" as="geometry" />
        </mxCell>
        <mxCell id="3gOpFJUrYChyAeatIPqP-5" value="" style="endArrow=none;dashed=1;html=1;" edge="1" parent="1">
          <mxGeometry width="50" height="50" relative="1" as="geometry">
            <mxPoint x="10" y="510" as="sourcePoint" />
            <mxPoint x="790" y="510" as="targetPoint" />
          </mxGeometry>
        </mxCell>
        <mxCell id="3gOpFJUrYChyAeatIPqP-6" value="本地局域网" style="text;html=1;strokeColor=none;fillColor=none;align=center;verticalAlign=middle;whiteSpace=wrap;rounded=0;" vertex="1" parent="1">
          <mxGeometry x="210" y="310" width="80" height="20" as="geometry" />
        </mxCell>
        <mxCell id="3gOpFJUrYChyAeatIPqP-7" value="" style="endArrow=none;dashed=1;html=1;" edge="1" parent="1">
          <mxGeometry width="50" height="50" relative="1" as="geometry">
            <mxPoint x="199.5" y="510" as="sourcePoint" />
            <mxPoint x="199.5" y="290" as="targetPoint" />
          </mxGeometry>
        </mxCell>
        <mxCell id="3gOpFJUrYChyAeatIPqP-21" style="edgeStyle=orthogonalEdgeStyle;rounded=0;orthogonalLoop=1;jettySize=auto;html=1;exitX=0.5;exitY=0;exitDx=0;exitDy=0;entryX=0.5;entryY=1;entryDx=0;entryDy=0;" edge="1" parent="1" source="3gOpFJUrYChyAeatIPqP-8" target="3gOpFJUrYChyAeatIPqP-19">
          <mxGeometry relative="1" as="geometry" />
        </mxCell>
        <mxCell id="3gOpFJUrYChyAeatIPqP-8" value="地磅边缘节点" style="rounded=0;whiteSpace=wrap;html=1;" vertex="1" parent="1">
          <mxGeometry x="470" y="380" width="120" height="60" as="geometry" />
        </mxCell>
        <mxCell id="3gOpFJUrYChyAeatIPqP-12" style="edgeStyle=orthogonalEdgeStyle;rounded=0;orthogonalLoop=1;jettySize=auto;html=1;exitX=1;exitY=0.5;exitDx=0;exitDy=0;entryX=0;entryY=0.5;entryDx=0;entryDy=0;" edge="1" parent="1" source="3gOpFJUrYChyAeatIPqP-9" target="3gOpFJUrYChyAeatIPqP-11">
          <mxGeometry relative="1" as="geometry" />
        </mxCell>
        <mxCell id="3gOpFJUrYChyAeatIPqP-9" value="轨道衡工控机" style="rounded=0;whiteSpace=wrap;html=1;" vertex="1" parent="1">
          <mxGeometry x="30" y="380" width="120" height="60" as="geometry" />
        </mxCell>
        <mxCell id="3gOpFJUrYChyAeatIPqP-15" style="edgeStyle=orthogonalEdgeStyle;rounded=0;orthogonalLoop=1;jettySize=auto;html=1;exitX=0.5;exitY=0;exitDx=0;exitDy=0;entryX=0.5;entryY=1;entryDx=0;entryDy=0;" edge="1" parent="1" source="3gOpFJUrYChyAeatIPqP-10" target="3gOpFJUrYChyAeatIPqP-1">
          <mxGeometry relative="1" as="geometry" />
        </mxCell>
        <mxCell id="3gOpFJUrYChyAeatIPqP-10" value="轨道衡数据采集" style="rounded=0;whiteSpace=wrap;html=1;" vertex="1" parent="1">
          <mxGeometry x="280" y="380" width="120" height="60" as="geometry" />
        </mxCell>
        <mxCell id="3gOpFJUrYChyAeatIPqP-13" style="edgeStyle=orthogonalEdgeStyle;rounded=0;orthogonalLoop=1;jettySize=auto;html=1;exitX=1;exitY=0.5;exitDx=0;exitDy=0;entryX=0;entryY=0.5;entryDx=0;entryDy=0;" edge="1" parent="1" source="3gOpFJUrYChyAeatIPqP-11" target="3gOpFJUrYChyAeatIPqP-10">
          <mxGeometry relative="1" as="geometry" />
        </mxCell>
        <mxCell id="3gOpFJUrYChyAeatIPqP-11" value="隔离网闸" style="rounded=0;whiteSpace=wrap;html=1;" vertex="1" parent="1">
          <mxGeometry x="170" y="395" width="60" height="30" as="geometry" />
        </mxCell>
        <mxCell id="3gOpFJUrYChyAeatIPqP-16" value="货主端app" style="rounded=0;whiteSpace=wrap;html=1;" vertex="1" parent="1">
          <mxGeometry x="50" y="20" width="120" height="60" as="geometry" />
        </mxCell>
        <mxCell id="3gOpFJUrYChyAeatIPqP-17" value="货主端app" style="rounded=0;whiteSpace=wrap;html=1;" vertex="1" parent="1">
          <mxGeometry x="200" y="20" width="120" height="60" as="geometry" />
        </mxCell>
        <mxCell id="3gOpFJUrYChyAeatIPqP-18" value="货主端app" style="rounded=0;whiteSpace=wrap;html=1;" vertex="1" parent="1">
          <mxGeometry x="350" y="20" width="120" height="60" as="geometry" />
        </mxCell>
        <mxCell id="3gOpFJUrYChyAeatIPqP-20" style="edgeStyle=orthogonalEdgeStyle;rounded=0;orthogonalLoop=1;jettySize=auto;html=1;exitX=0.5;exitY=0;exitDx=0;exitDy=0;entryX=1;entryY=0.5;entryDx=0;entryDy=0;" edge="1" parent="1" source="3gOpFJUrYChyAeatIPqP-19" target="3gOpFJUrYChyAeatIPqP-1">
          <mxGeometry relative="1" as="geometry" />
        </mxCell>
        <mxCell id="3gOpFJUrYChyAeatIPqP-19" value="网关" style="rounded=0;whiteSpace=wrap;html=1;" vertex="1" parent="1">
          <mxGeometry x="550" y="310" width="90" height="30" as="geometry" />
        </mxCell>
        <mxCell id="3gOpFJUrYChyAeatIPqP-23" style="edgeStyle=orthogonalEdgeStyle;rounded=0;orthogonalLoop=1;jettySize=auto;html=1;exitX=0.5;exitY=0;exitDx=0;exitDy=0;" edge="1" parent="1" source="3gOpFJUrYChyAeatIPqP-22" target="3gOpFJUrYChyAeatIPqP-19">
          <mxGeometry relative="1" as="geometry" />
        </mxCell>
        <mxCell id="3gOpFJUrYChyAeatIPqP-22" value="门禁控制" style="rounded=0;whiteSpace=wrap;html=1;" vertex="1" parent="1">
          <mxGeometry x="620" y="380" width="120" height="60" as="geometry" />
        </mxCell>
      </root>
    </mxGraphModel>
  </diagram>
</mxfile>
